<?xml version="1.0" encoding="utf-8"?>
<!-- Generator: Adobe Illustrator 26.0.3, SVG Export Plug-In . SVG Version: 6.00 Build 0)  -->
<svg version="1.1" id="Layer_1" xmlns="http://www.w3.org/2000/svg" xmlns:xlink="http://www.w3.org/1999/xlink" x="0px" y="0px"
	 viewBox="0 0 470 469" style="enable-background:new 0 0 470 469;" xml:space="preserve">
<style type="text/css">
	.st0{fill:#82817C;stroke:#82817C;stroke-width:49;stroke-miterlimit:10;}
	.st1{fill:none;}
	.st2{fill:#82817C;}
</style>
<path class="st0" d="M19.4,217.9c0.5-99.6,105.2-202,214.3-197.2c115.3-2.6,217.2,97.8,214.6,212.1c-0.1,58.3-20.9,108.6-62.4,150
	C248.3,519.4,15.7,419.8,19.4,217.9z M448.4,235C450.5,45.1,214.7-51.3,82.2,83.4C-1.6,163-1.5,306.7,82.1,386.3
	C214.6,521.3,450.1,424.6,448.4,235z M127.3,342.2l209.6-213.6 M231.8,235.7L231.8,235.7 M231.8,235.7h0.8 M340.5,341.3L130.9,127.7
	"/>
<path class="st1" d="M448.4,235c1.7,189.6-233.7,286.3-366.3,151.3C-1.6,306.7-1.6,163,82.2,83.4C214.7-51.3,450.5,45.1,448.4,235z
	 M176.1,378.9 M179.5,364.9"/>
<path class="st2" d="M179.5,364.9"/>
<path class="st2" d="M176.1,378.9"/>
</svg>
