<?xml version="1.0" encoding="utf-8"?>
<!-- Generator: Adobe Illustrator 26.0.3, SVG Export Plug-In . SVG Version: 6.00 Build 0)  -->
<svg version="1.1" id="Layer_1" xmlns="http://www.w3.org/2000/svg" xmlns:xlink="http://www.w3.org/1999/xlink" x="0px" y="0px"
	width="1920px" height="1080px" viewBox="0 0 470 469" style="enable-background:new 0 0 470 469;" xml:space="preserve" >
<style type="text/css">
	.st0{fill:#82817C;}
	.st1{fill:none;}
</style>
<path class="st0" d="M6,218.5c0.6-107,111.9-217,227.8-211.9C356.4,3.8,464.7,111.7,462,234.5c-0.1,62.6-22.2,116.8-66.4,161.2
	C249.3,542.5,2,435.5,6,218.5z M448.4,235C450.5,45.1,214.7-51.3,82.2,83.4C-1.6,163-1.5,306.7,82.1,386.3
	C214.6,521.3,450.1,424.6,448.4,235z"/>
<path class="st1" d="M448.4,235c1.7,189.6-233.7,286.3-366.3,151.3C-1.6,306.7-1.6,163,82.2,83.4C214.7-51.3,450.5,45.1,448.4,235z
	 M310.9,230c1.4-2.3,3-2.8,4.4-3.7c19.2-12.4,18.9-38.5,15.2-58.6c-1.4-7-4-13.6-5.8-20.5c-4.8-18.2-25.5-30.7-43-24.4
	c-14.3,5-21.3,15.1-24.9,29.2c-4.6,14.4-8.1,29.7-5.5,44.9c0.8,12.4,6.3,22.2,16.5,29.3c3.5,2.4,5.4,4.8,3.8,9
	c-0.2,0.4-0.1,1-0.1,1.5c-0.1,22.8-2.5,45.5-2.9,68.2c-0.2,13.5-1.6,26.9-1.4,40.4c-1.7,10.2-0.6,20.5,8.2,27.5
	c8,6.4,16.6,8.4,26,4.1c9.6-4.3,15.2-11.7,14.9-22.6c-0.7-23.9-2.1-47.8-2.9-71.7c-0.4-10.6-1.6-21.2-1.3-31.9c0-0.5,0-1-0.1-1.5
	C310.4,242.7,311.4,236.2,310.9,230z M204.2,194.7c-6.1,6-12,12-18.3,17.8c-3.1,2.9-4.2,6-4,10.2c0.8,21.2,1.7,42.5,3,63.7
	c1.4,19.7,1.4,39.5,3,59.2c0.5,3.1,0.4,6.3,0.1,9.5c-0.4,4.8-4.2,9.2-8.5,9.9c-4.7,0.8-9.8-0.2-12.7-5.6c-1.8-3.4-1.3-6.9-1.1-10.6
	c0.6-13.6,1.4-27.2,2.1-40.8c1.7-27.9,2.5-55.8,4.2-83.6c0.3-5.3-1.3-9.3-5.1-12.8c-5-4.6-9.6-9.7-14.6-14.3
	c-2.5-2.3-3.3-4.6-3.2-7.8c0-20.7,0.2-41.3,0-62c-0.3-3-3.3-5.9-6.2-6.2c-5.4-0.4-7.5,5.6-7.5,10.4c0.1,20.2,0,40.3,0,60.5
	c0,4.5,1.2,8.3,4.7,11.5c5.4,5,10.3,10.4,15.7,15.4c2,1.9,2.8,3.9,2.6,6.6c-1,18.4-2.1,36.8-2.9,55.2c-0.6,11.6-1.6,23.2-1.4,34.9
	c-1,13.1-1.9,26.2-1.9,39.3c0,10.9,9.6,23.6,24,23.9c13.8,0.3,26.8-11,25.6-28c-1.3-21.9-2.4-43.7-3.5-65.7
	c-0.9-12.9-0.6-25.9-1.8-38.8c-0.8-7.9,0-15.9-1.5-23.7c6.4-6.8,12.7-13,19.3-19.4c2.7-2.6,3.9-5.6,3.9-9.3c0-21.3,0-42.7,0-64
	c0-5.4-1.3-7-6.8-8.8c-6.8,2.1-7,4.9-7,11.3C204.2,153.5,204.2,173.3,204.2,194.7z M385.9,233.5c-0.8-5.9-0.7-13.3-1.7-20.8
	c-1.3-9.6-3.8-18.8-6.9-27.9c-5.5-16-13.9-30.4-24-43.9c-1.3-1.7-2.8-3.3-4.5-4.7c-2.3-2-6.1-1.8-8.2,0.2c-4.4,3.9-1.7,8,1.3,11.7
	c17.5,21.9,28.2,48.5,30.2,76.5c2.8,36.9-9.8,74.8-34.9,102.1c-3.7,3.9-10.5,10.3-5.1,15.5c3.6,3.5,8.8,1.3,11.5-2.4
	C370.9,310.8,385.5,274.4,385.9,233.5z M82.4,235.5c0.6,2.9,0.4,7.7,0.6,12.5c1.1,19.6,7.3,38.5,16,55.9
	c6.9,13.4,15.5,25.5,25.9,36.3c3.9,4.1,7.8,4.7,10.9,2c3-2.7,2.7-6.9-1-11c-15.2-16.2-27.3-35.5-33.5-56.9
	c-8.3-29-7.6-61.1,3.6-89.2c3.7-9.6,8.2-18.8,14.3-27.2c1.2-1.6,2.3-3.3,3.1-5.1c3.6-8.1-6-14.1-11.5-6.6
	C92.3,172.6,82.5,201.8,82.4,235.5z M234.2,83.2c-3.7,0-7.4-0.3-11,0.1c-9.3,1.1-18.7,2.4-27.8,4.8c-5.1,1.4-10.3,2.5-15,4.9
	c-8.6,4-3.5,15.1,5.1,12.6c25.8-9.7,54.2-11.2,81-5c3.6,0.8,7-1.4,8.1-4.9c1.6-4.5-2.5-8.1-7-8.7C256.6,84.4,245.5,82.9,234.2,83.2z
	 M189,195.6c5.2-2.1,6-3,6-8.5c0-19,0-37.9,0-56.9c1-8.4-9.8-13.5-13-4c-0.7,2.1-0.8,4.2-0.8,6.4c0.1,18.1-0.2,36.3,0.1,54.4
	C181.7,191.3,182.7,195.4,189,195.6z M165.4,121.1c-4.7,1.1-6.7,3.7-6.6,8.3c0.5,20.2-1.9,40.5,0.2,60.7c0.3,2.8,2.2,4.7,5.1,5.4
	c2.1,0.5,5.2-0.7,6.5-2.6c1.2-1.7,1.5-3.6,1.5-5.7c0-19.1,0-38.3-0.1-57.4C172,124.5,170.8,123.1,165.4,121.1z M233.5,386.7
	c5.7,0.7,11.5-0.7,17.3-0.8c1.4,0,2.6-0.6,3.7-1.2c4.6-2.7,4.6-8.6,0.1-11.4c-2.4-1.5-5.1-1.4-7.7-1c-8.2,1.2-16.5,1.1-24.7,0
	c-1.8-0.2-3.7-0.3-5.5-0.1c-7.7,1.2-8.9,10.3-1.6,13.2c0.8,0.3,1.6,0.5,2.4,0.5C222.8,386.1,228.1,387.3,233.5,386.7z"/>
<path class="st0" d="M310.9,230c0.5,6.2-0.4,12.7,1,19.1c0.1,0.5,0.1,1,0.1,1.5c-0.3,10.7,0.9,21.3,1.3,31.9
	c0.9,23.9,2.2,47.8,2.9,71.7c0.2,10.9-5.4,18.3-14.9,22.6c-9.4,4.3-18,2.3-26-4.1c-8.9-7-10-17.3-8.2-27.5
	c-0.1-13.5,1.2-26.9,1.4-40.4c0.5-22.8,2.8-45.5,2.9-68.2c0-0.5-0.1-1.1,0.1-1.5c1.7-4.3-0.3-6.6-3.8-9c-10.2-7-15.7-16.9-16.5-29.3
	c-2.6-15.2,0.9-30.5,5.5-44.9c3.6-14.1,10.6-24.2,24.9-29.2c17.6-6.3,38.2,6.2,43,24.4c1.8,6.9,4.4,13.5,5.8,20.5
	c3.8,20.1,4.1,46.2-15.2,58.6C313.8,227.2,312.2,227.7,310.9,230z M280,347.8c0,2.7,0,5.3,0,8c0,2.5,0.9,4.7,2.7,6.2
	c4,3.4,8.7,4.1,13.6,2.3c4.7-1.8,6.7-5.6,6.8-10.6c-1.7-30.1-3.1-60.4-4-90.6c-1.3-11.7-0.7-23.6-1.9-35.3c-0.5-5.1,1.6-8.1,6.2-10
	c8.2-3.3,12.9-10,14.6-18.3c3.7-17.1-1.4-34.4-6.9-50.5c-2.8-8.6-11.6-14.6-20.7-14.2c-8.6,0.4-16.6,6.2-19.1,15
	c-2.5,8.7-5.9,17.2-6.8,26.4c-0.9,8.9-1.4,17.9,1.4,26.7c2,6.4,5.8,11.1,11.8,14c1.8,0.9,3.6,1.8,5.2,3c2.2,1.5,3,3.9,2.9,6.5
	c-0.8,15.4-1.8,30.8-2.5,46.2c-0.6,13.5-0.9,26.9-1.3,40.4C280.2,324.5,281.9,336.2,280,347.8z"/>
<path class="st0" d="M204.2,194.7c0-21.3,0-41.2,0-62.3c-0.1-6.5,0.2-9.2,7-11.3c5.5,1.8,6.8,3.4,6.8,8.8c0,21.3,0,42.7,0,64
	c0,3.7-1.2,6.7-3.9,9.3c-6.6,6.5-12.9,12.7-19.3,19.4c1.5,7.8,0.7,15.8,1.5,23.7c1.2,12.9,0.9,25.9,1.8,38.8
	c1.1,21.9,2.2,43.8,3.5,65.7c1.2,17-11.7,28.4-25.6,28c-14.4-0.3-24-13.1-24-23.9c0-13.1,0.8-26.2,1.9-39.3
	c-0.1-11.7,0.8-23.3,1.4-34.9c0.8-18.4,1.9-36.8,2.9-55.2c0.2-2.7-0.6-4.7-2.6-6.6c-5.3-5-10.3-10.5-15.7-15.4
	c-3.5-3.2-4.7-7-4.7-11.5c0-20.2,0-40.3,0-60.5c0-4.7,2-10.8,7.5-10.4c2.9,0.3,5.9,3.2,6.2,6.2c0.2,20.7,0.1,41.3,0,62
	c0,3.2,0.7,5.6,3.2,7.8c5.1,4.5,9.6,9.6,14.6,14.3c3.8,3.5,5.5,7.6,5.1,12.8c-1.7,27.9-2.5,55.8-4.2,83.6
	c-0.7,13.6-1.5,27.2-2.1,40.8c-0.2,3.7-0.7,7.2,1.1,10.6c2.9,5.4,8,6.4,12.7,5.6c4.3-0.7,8.1-5.1,8.5-9.9c0.2-3.1,0.4-6.4-0.1-9.5
	c-1.6-19.7-1.5-39.5-3-59.2c-1.3-21.2-2.2-42.5-3-63.7c-0.2-4.1,0.9-7.3,4-10.2C192.2,206.7,198.1,200.6,204.2,194.7z"/>
<path class="st0" d="M385.9,233.5c-0.4,41-15,77.4-42.4,106.4c-2.7,3.6-7.9,6-11.5,2.4c-5.4-5.1,1.5-11.5,5.1-15.5
	c25.1-27.4,37.7-65.2,34.9-102.1c-1.9-28-12.6-54.6-30.2-76.5c-3-3.7-5.7-7.8-1.3-11.7c2.1-2,5.9-2.2,8.2-0.2c1.6,1.4,3.2,3,4.5,4.7
	c10.1,13.5,18.6,27.9,24,43.9c3.1,9.1,5.5,18.3,6.9,27.9C385.2,220.1,385.1,227.6,385.9,233.5z"/>
<path class="st0" d="M82.4,235.5c0.1-33.7,9.9-62.9,28.5-89.3c5.4-7.5,15.1-1.5,11.5,6.6c-0.8,1.8-2,3.5-3.1,5.1
	c-11.4,16.3-18.6,35.4-21.9,54.9c-4.6,31,0.6,63.5,16.5,90.7c5.8,10.2,13.2,19.1,21,27.7c3.7,4.1,4,8.2,1,11c-3,2.7-7,2.1-10.9-2
	c-10.4-10.8-19-22.9-25.9-36.3c-8.7-17.5-15-36.4-16-55.9C82.8,243.2,83,238.4,82.4,235.5z"/>
<path class="st0" d="M234.2,83.2c11.3-0.3,22.4,1.2,33.5,3.7c4.5,0.6,8.6,4.2,7,8.7c-1.2,3.5-4.6,5.7-8.1,4.9
	c-26.8-6.2-55.2-4.7-81,5c-8.6,2.5-13.7-8.6-5.1-12.6c4.7-2.4,9.9-3.6,15-4.9c9.1-2.4,18.4-3.7,27.8-4.8
	C226.8,82.8,230.5,83.2,234.2,83.2z"/>
<path class="st0" d="M189,195.6c-6.3-0.3-7.3-4.3-7.7-8.6c-0.2-18.1,0.1-36.3-0.1-54.4c0-2.2,0.2-4.3,0.8-6.4c3.1-9.5,14-4.4,13,4
	c0,19,0,37.9,0,56.9C195,192.6,194.2,193.6,189,195.6z"/>
<path class="st0" d="M165.4,121.1c5.4,2.1,6.6,3.5,6.6,8.7c0.1,19.1,0,38.3,0.1,57.4c0,2.1-0.3,4-1.5,5.7c-1.4,1.9-4.4,3.1-6.5,2.6
	c-2.9-0.7-4.8-2.5-5.1-5.4c-2.1-20.2,0.3-40.5-0.2-60.7C158.7,124.7,160.8,122.2,165.4,121.1z"/>
<path class="st0" d="M233.5,386.7c-5.4,0.6-10.6-0.6-15.9-0.8c-0.8,0-1.6-0.3-2.4-0.5c-7.4-2.8-6.2-12,1.6-13.2
	c1.8-0.2,3.7-0.2,5.5,0.1c8.2,1.1,16.5,1.1,24.7,0c2.6-0.4,5.3-0.5,7.7,1c4.5,2.8,4.4,8.7-0.1,11.4c-1.1,0.7-2.3,1.2-3.7,1.2
	C244.9,385.9,239.2,387.4,233.5,386.7z"/>
<path class="st1" d="M280,347.8c1.9-11.5,0.2-23.3,1.9-34.8c0.4-13.5,0.7-26.9,1.3-40.4c0.7-15.4,1.7-30.8,2.5-46.2
	c0.1-2.6-0.7-4.9-2.9-6.5c-1.6-1.1-3.4-2.1-5.2-3c-6-3-9.8-7.7-11.8-14c-2.8-8.8-2.3-17.7-1.4-26.7c0.9-9.1,4.3-17.6,6.8-26.4
	c2.5-8.8,10.4-14.6,19.1-15c9.1-0.4,17.9,5.5,20.7,14.2c5.5,16.1,10.6,33.4,6.9,50.5c-1.7,8.4-6.4,15-14.6,18.3
	c-4.6,1.9-6.8,4.8-6.2,10c1.2,11.7,0.7,23.6,1.9,35.3c0.9,30.2,2.3,60.4,4,90.6c-0.1,4.9-2,8.8-6.8,10.6c-4.8,1.8-9.5,1-13.6-2.3
	c-1.8-1.5-2.7-3.7-2.7-6.2C280,353.1,280,350.4,280,347.8z"/>
</svg>
